# xmcd CD database file
#
# Track frame offsets:
#	150
#	19350
#	28650
#	51375
#	72225
#	89550
#	111900
#	133050
#	153750
#	170475
#	193650
#	210450
#	232425
#	256500
#
# Disc length: 3533 seconds
#
# Revision: 7
# Processed by: cddbd v1.5PL3 Copyright (c) Steve Scherf et al.
# Submitted via: CDex 1.50beta8
#
DISCID=c90dcb0e
DTITLE=鈴木あみ - SA
DYEAR=1999
DGENRE=Pop
TTITLE0=nothing without you
TTITLE1=STORIES BEHIND
TTITLE2=alone in my room
TTITLE3=white key
TTITLE4=ANOTHER WORLD
TTITLE5=love the island
TTITLE6=Don't leave me behind
TTITLE7=ボクのしあわせ
TTITLE8=in my diary...
TTITLE9=明日、あつく、もっと、つよく
TTITLE10=PRIVATE SKY
TTITLE11=all night long
TTITLE12=Silent Stream
TTITLE13=smile
EXTD=YEAR: 1999
EXTT0=
EXTT1=
EXTT2=
EXTT3=
EXTT4=
EXTT5=
EXTT6=
EXTT7=
EXTT8=
EXTT9=
EXTT10=
EXTT11=
EXTT12=
EXTT13=
PLAYORDER=
